<svg width="25" height="25" viewBox="0 0 25 25" fill="none" xmlns="http://www.w3.org/2000/svg">
<path d="M21.7131 4.22199C21.7131 4.96989 21.2547 5.62128 20.6033 5.88666V21.701H2.40048L7.491 13.5828C7.32739 13.3048 7.24001 12.9885 7.23768 12.666C7.23768 11.6648 8.04589 10.8566 9.0471 10.8566C10.0483 10.8566 10.8565 11.6648 10.8565 12.666C10.8565 12.8228 10.8324 12.9675 10.7962 13.1123L12.5333 13.8723C12.859 13.5104 13.3415 13.2691 13.8722 13.2691C14.0894 13.2691 14.2944 13.3174 14.4874 13.3777L18.8059 5.64541C18.3717 5.31971 18.0942 4.80101 18.0942 4.22199C18.0942 3.22078 18.9024 2.41257 19.9037 2.41257C20.1328 2.41257 20.3379 2.46082 20.543 2.5332L20.6033 2.42463V2.55732C21.2547 2.8227 21.7131 3.4741 21.7131 4.22199V4.22199ZM19.397 20.4948V7.05676L15.4283 14.1618C15.5852 14.4392 15.6817 14.7408 15.6817 15.0785C15.6817 16.0798 14.8735 16.888 13.8722 16.888C12.871 16.888 12.0628 16.0798 12.0628 15.0785L12.0749 14.9941L10.1086 14.1256C9.80706 14.3427 9.44518 14.4754 9.0471 14.4754C8.82997 14.4754 8.6249 14.4271 8.4319 14.3548L4.57179 20.4948H19.397V20.4948Z" fill="#2E59DD"/>
</svg>
